<svg xmlns="http://www.w3.org/2000/svg" width="76.658" height="70.004" viewBox="0 0 76.658 70.004"><defs><style>.a{fill:#00e0e8;}</style></defs><path class="a" d="M68.487,51.074A31.662,31.662,0,0,0,50.084,31.2V24.3h-4.5v5.476a31.538,31.538,0,0,0-5.045-.771V22.2h-4.5V29A31.556,31.556,0,0,0,31,29.776V24.3h-4.5v6.9A31.657,31.657,0,0,0,8.1,51.095a11.123,11.123,0,0,0,.98,21.638,31.655,31.655,0,0,0,58.43.012,11.123,11.123,0,0,0,.979-21.67ZM65.816,68.417l-1.5.062L63.8,69.89a27.158,27.158,0,0,1-51.006,0l-.512-1.4-1.489-.073a6.626,6.626,0,0,1-.6-13.179l1.479-.206.383-1.443a27.153,27.153,0,0,1,52.476-.008l.386,1.455,1.493.2a6.625,6.625,0,0,1-.6,13.186Z" transform="translate(0 -22.203)"/><path class="a" d="M140.891,239.536v8.292a17.183,17.183,0,0,0,34.366,0v-8.292Zm19.781,4.5v4.308h-5.195v-4.308Zm10.09,0v3.8a12.688,12.688,0,0,1-25.375,0v-3.8h5.594v8.8h14.186v-8.8Z" transform="translate(-119.778 -206.968)"/></svg>