<svg xmlns="http://www.w3.org/2000/svg" width="76.724" height="71.498" viewBox="0 0 76.724 71.498"><defs><style>.a{fill:#00e0e8;}</style></defs><g transform="translate(0 0)"><path class="a" d="M60.119,55.724q-.642,0-1.271.048.5-.774,1.048-1.519a26.4,26.4,0,0,0,4.321-23.685c-1.912-5.958-5.993-10.332-11.2-12a24.535,24.535,0,0,0-20.332,2.706,24.536,24.536,0,0,0-20.333-2.705c-5.2,1.669-9.286,6.044-11.2,12a26.4,26.4,0,0,0,4.33,23.691,25.149,25.149,0,0,1,4.5,9.865c.331,1.564.621,3.3.861,5.156,1.618,12.553,4.832,19.158,9.554,19.63,2.76.277,5.042-1.986,6.779-6.725a54.907,54.907,0,0,0,2.659-12.33,12.71,12.71,0,0,1,1.918-6.031,1.141,1.141,0,0,1,1.859,0,12.712,12.712,0,0,1,1.916,6.03,54.887,54.887,0,0,0,2.66,12.33c1.643,4.481,3.771,6.748,6.332,6.748q.221,0,.446-.022c1.881-.187,3.533-1.362,4.933-3.5A16.6,16.6,0,1,0,60.119,55.724ZM44.6,84.423c-.211-.131-1.251-.934-2.464-4.6a53.343,53.343,0,0,1-2.126-10.454,17.23,17.23,0,0,0-2.721-8.144,5.643,5.643,0,0,0-9.2,0,17.228,17.228,0,0,0-2.723,8.145,53.347,53.347,0,0,1-2.126,10.453c-1.212,3.667-2.251,4.473-2.463,4.6-1.053-.235-3.877-3.4-5.463-15.715-.255-1.977-.566-3.832-.921-5.511A29.613,29.613,0,0,0,9.1,51.576,21.9,21.9,0,0,1,5.445,31.948c1.462-4.559,4.482-7.873,8.285-9.092a19.072,19.072,0,0,1,12.357.243A20.148,20.148,0,0,1,31.3,25.763l1.387,1.1,1.393-1.1A20.128,20.128,0,0,1,39.29,23.1a19.072,19.072,0,0,1,12.356-.243c3.8,1.219,6.821,4.532,8.284,9.089a21.894,21.894,0,0,1-3.647,19.623,30.73,30.73,0,0,0-3.415,5.826,16.591,16.591,0,0,0-6.205,24.655C45.837,83.632,45.077,84.318,44.6,84.423Zm15.52.01a12.1,12.1,0,1,1,12.1-12.1A12.117,12.117,0,0,1,60.119,84.433Z" transform="translate(0 -17.439)"/></g><g transform="translate(52.544 47.639)"><path class="a" d="M360.394,340.594v-5.252h-4.5v5.252H350.64v4.5h5.252v5.252h4.5V345.1h5.252v-4.5Z" transform="translate(-350.64 -335.342)"/></g></svg>