<svg xmlns="http://www.w3.org/2000/svg" width="18.159" height="18.159" viewBox="0 0 18.159 18.159"><defs><style>.a{fill:#d4565f;}</style></defs><path class="a" d="M2.66,18.159H8.583V11.7H6.455V9.576H8.583V6.916a2.663,2.663,0,0,1,2.66-2.66H13.9V6.384H11.775a1.065,1.065,0,0,0-1.064,1.064V9.576h3.1L13.453,11.7H10.711v6.455H15.5a2.663,2.663,0,0,0,2.66-2.66V2.66A2.663,2.663,0,0,0,15.5,0H2.66A2.663,2.663,0,0,0,0,2.66V15.5A2.663,2.663,0,0,0,2.66,18.159Zm-1.6-15.5a1.6,1.6,0,0,1,1.6-1.6H15.5a1.6,1.6,0,0,1,1.6,1.6V15.5a1.6,1.6,0,0,1-1.6,1.6H11.775V12.768h2.579l.709-4.256H11.775V7.448h3.192V3.192H11.243A3.728,3.728,0,0,0,7.519,6.916v1.6H5.391v4.256H7.519V17.1H2.66a1.6,1.6,0,0,1-1.6-1.6Zm0,0"/></svg>