<svg xmlns="http://www.w3.org/2000/svg" width="18.159" height="18.159" viewBox="0 0 18.159 18.159"><defs><style>.a{fill:#d4565f;}</style></defs><path class="a" d="M2.66,18.159H15.5a2.663,2.663,0,0,0,2.66-2.66V2.66A2.663,2.663,0,0,0,15.5,0H2.66A2.663,2.663,0,0,0,0,2.66V15.5A2.663,2.663,0,0,0,2.66,18.159Zm-1.6-15.5a1.6,1.6,0,0,1,1.6-1.6H15.5a1.6,1.6,0,0,1,1.6,1.6V15.5a1.6,1.6,0,0,1-1.6,1.6H2.66a1.6,1.6,0,0,1-1.6-1.6Zm0,0"/><path class="a" d="M125.788,130.576A4.788,4.788,0,1,0,121,125.788,4.794,4.794,0,0,0,125.788,130.576Zm0-8.512a3.724,3.724,0,1,1-3.724,3.724A3.728,3.728,0,0,1,125.788,122.064Zm0,0" transform="translate(-116.708 -116.708)"/><path class="a" d="M362.6,64.192a1.6,1.6,0,1,0-1.6-1.6A1.6,1.6,0,0,0,362.6,64.192Zm0-2.128a.532.532,0,1,1-.532.532A.533.533,0,0,1,362.6,62.064Zm0,0" transform="translate(-348.196 -58.836)"/></svg>