<svg xmlns="http://www.w3.org/2000/svg" width="76.725" height="60.606" viewBox="0 0 76.725 60.606"><defs><style>.a{fill:#00e0e8;}</style></defs><path class="a" d="M53.319,54.4a10.843,10.843,0,0,0-8.415.514L38.3,58.207l-6.478-3.25a10.826,10.826,0,0,0-8.563-.483L0,63.029V99.97l.544.632c.653.759,1.342,1.5,2.046,2.205a39.282,39.282,0,0,0,27.96,11.582H46.175a39.282,39.282,0,0,0,27.96-11.582c.7-.7,1.393-1.446,2.046-2.205l.544-.632V62.689ZM8.981,89.446h6.553v6.681a26.269,26.269,0,0,1-6.553-6.681Zm11.049,0h9.091v11.416a25.868,25.868,0,0,1-9.091-2.179Zm13.587,0h9.491V100.9H33.617Zm13.986,0h9.091v9.236a25.872,25.872,0,0,1-9.091,2.179Zm13.587,0h6.553a26.266,26.266,0,0,1-6.553,6.681Zm9-4.5h-9V75.5H72.221A25.885,25.885,0,0,1,70.189,84.951Zm-13.495,0H47.6V75.5h9.091Zm-13.587,0H33.617V75.5h9.491Zm-13.986,0H20.03V75.5h9.091Zm-13.587,0h-9A25.886,25.886,0,0,1,4.5,75.5H15.535ZM70.956,99.628a34.816,34.816,0,0,1-24.781,10.265H30.55A34.816,34.816,0,0,1,5.769,99.628c-.433-.433-.859-.882-1.273-1.341v-7.5A30.559,30.559,0,0,0,30.55,105.4H46.175A30.559,30.559,0,0,0,72.229,90.783v7.5c-.414.459-.84.909-1.273,1.341ZM4.5,71V66.165l20.312-7.472a6.314,6.314,0,0,1,4.994.282l8.487,4.259,8.62-4.3a6.326,6.326,0,0,1,4.908-.3l20.411,7.23V71H4.5Z" transform="translate(0 -53.783)"/></svg>