<svg xmlns="http://www.w3.org/2000/svg" width="18.159" height="18.159" viewBox="0 0 18.159 18.159"><defs><style>.a{fill:#d4565f;}</style></defs><path class="a" d="M15.5,0H2.66A2.663,2.663,0,0,0,0,2.66V15.5a2.663,2.663,0,0,0,2.66,2.66H15.5a2.663,2.663,0,0,0,2.66-2.66V2.66A2.663,2.663,0,0,0,15.5,0Zm1.6,15.5a1.6,1.6,0,0,1-1.6,1.6H2.66a1.6,1.6,0,0,1-1.6-1.6V2.66a1.6,1.6,0,0,1,1.6-1.6H15.5a1.6,1.6,0,0,1,1.6,1.6Zm0,0"/><path class="a" d="M91,217.519h3.192V210H91Zm1.064-6.455h1.064v5.391H92.064Zm0,0" transform="translate(-87.772 -202.552)"/><path class="a" d="M215.259,210h0a3.186,3.186,0,0,0-1.064.181V210H211v7.519h3.192v-3.8a.532.532,0,1,1,1.064,0v3.8h3.192v-4.161A3.344,3.344,0,0,0,215.259,210Zm2.125,6.455H216.32v-2.731a1.6,1.6,0,0,0-3.192,0v2.731h-1.064v-5.391h1.064v1.065l.852-.64a2.109,2.109,0,0,1,1.277-.425h0a2.275,2.275,0,0,1,2.126,2.294Zm0,0" transform="translate(-203.516 -202.551)"/><path class="a" d="M91,93.192h3.192V90H91Zm1.064-2.128h1.064v1.064H92.064Zm0,0" transform="translate(-87.772 -86.808)"/></svg>