<svg xmlns="http://www.w3.org/2000/svg" width="76.725" height="75.988" viewBox="0 0 76.725 75.988"><defs><style>.a{fill:#00e0e8;}</style></defs><g transform="translate(0 0)"><path class="a" d="M63.358,32.047V26.86h-4.48v5.187H56V2.458H35.728L31.076,8.464a9.872,9.872,0,0,0-12.488,3.287L17.322,13.6,33.61,24.751,34.875,22.9a9.886,9.886,0,0,0-.33-11.6l3.379-4.362h13.6V44.7h-22L25.7,40.52H41V36.04H21.6l-3.726-4.076A11.721,11.721,0,0,0,1.821,30.792L0,32.279,23.285,58.144h8.827V73.965H26.138v4.48h26.99v-4.48H47.153V58.144h1.964l20.141,20.3,1.59-1.59a11.212,11.212,0,0,0,.008-15.833L56,46.021V36.527H76.725v-4.48Zm-31.317-13.8-8.088-5.538a5.389,5.389,0,0,1,8.088,5.538ZM42.673,73.965h-6.08V58.144h6.08ZM67.68,64.179A6.732,6.732,0,0,1,69,71.818L50.983,53.664H25.28L6.743,33.072a7.242,7.242,0,0,1,7.829,1.914l12.976,14.2h25.28Z" transform="translate(0 -2.458)"/></g></svg>